<mxfile host="app.diagrams.net" modified="2023-09-06T10:12:27.430Z" agent="Mozilla/5.0 (Macintosh; Intel Mac OS X 10_15_7) AppleWebKit/537.36 (KHTML, like Gecko) Chrome/116.0.0.0 Safari/537.36" version="21.7.2" etag="UYZPdx5TkLKpoQ_sYug6" type="github">
  <diagram name="第 1 页" id="VROyqYO6ZOV_bfTi2pdD">
    <mxGraphModel>
      <root>
        <mxCell id="0" />
        <mxCell id="1" parent="0" />
      </root>
    </mxGraphModel>
  </diagram>
</mxfile>
